<svg data-v-423bf9ae="" xmlns="http://www.w3.org/2000/svg" viewBox="0 0 552 90" class="iconLeft"><!----><!----><!----><g data-v-423bf9ae="" id="4d7eaf4b-8f73-4c75-b02b-857e7fbcb0eb" fill="#FFF" transform="matrix(5.785920989599432,0,0,5.785920989599432,165.91981439948495,14.247831610243683)"><path d="M4.77 10.50L4.77 2.49L7.27 2.49L7.27 0.50L0.28 0.50L0.28 2.49L2.77 2.49L2.77 10.50L4.77 10.50L4.77 10.50ZM13.96 10.50L13.96 10.50L13.96 8.50L10.78 8.50L10.78 6.50L13.41 6.50L13.41 4.49L10.78 4.49L10.78 2.49L13.79 2.49L13.79 0.49L8.78 0.49L8.78 10.50L13.96 10.50ZM15.83 0.49L15.83 0.49L15.83 10.50L21.01 10.50L21.01 8.50L17.84 8.50L17.84 0.49L15.83 0.49ZM22.74 0.49L22.74 0.49L22.74 10.50L27.92 10.50L27.92 8.50L24.74 8.50L24.74 0.49L22.74 0.49ZM37.27 10.50L37.27 2.49L39.76 2.49L39.76 0.50L32.77 0.50L32.77 2.49L35.27 2.49L35.27 10.50L37.27 10.50L37.27 10.50ZM46.45 10.50L46.45 10.50L46.45 8.50L43.27 8.50L43.27 6.50L45.91 6.50L45.91 4.49L43.27 4.49L43.27 2.49L46.28 2.49L46.28 0.49L41.27 0.49L41.27 10.50L46.45 10.50ZM47.43 10.50L49.70 10.50L50.09 9.42L53.41 9.42L53.82 10.50L56.07 10.50L51.86 0.13L51.65 0.13L47.43 10.50L47.43 10.50ZM50.82 7.55L51.76 4.94L52.67 7.55L50.82 7.55L50.82 7.55ZM62.06 4.73L58.11 0.34L57.47 0.34L57.47 10.50L59.50 10.50L59.50 4.91L62.06 7.60L64.62 4.91L64.61 10.50L66.64 10.50L66.64 0.34L66.01 0.34L62.06 4.73L62.06 4.73Z"></path></g><!----><g data-v-423bf9ae="" id="e6d6476a-89a6-45fe-a6e3-98f3e390102d" transform="matrix(1.4753987641974462,0,0,1.4753987641974462,0.23006179012769223,-28.270274995099015)" stroke="none" fill="#FFF"><path d="M27.695 19.5H4.107A4.11 4.11 0 0 0 0 23.607a4.109 4.109 0 0 0 4.107 4.102h23.588a4.106 4.106 0 0 0 4.106-4.102 4.108 4.108 0 0 0-4.106-4.107zM27.695 58.803h-8.173a4.11 4.11 0 0 0-4.107 4.106 4.11 4.11 0 0 0 4.107 4.103h8.173a4.106 4.106 0 0 0 4.105-4.103 4.107 4.107 0 0 0-4.105-4.106zM27.695 39.151H11.114a4.11 4.11 0 0 0-4.107 4.106 4.11 4.11 0 0 0 4.107 4.104h16.581a4.106 4.106 0 0 0 0-8.21zM92.993 19.5H45.871a7.007 7.007 0 0 0-7.007 7.007v33.498a7.007 7.007 0 0 0 7.007 7.007h12.088v10.686a2.802 2.802 0 0 0 4.783 1.982L75.41 67.012h17.583A7.007 7.007 0 0 0 100 60.005V26.507a7.007 7.007 0 0 0-7.007-7.007z"></path></g><!----></svg>